<svg xmlns="http://www.w3.org/2000/svg" viewBox="0 0 900 1200" width="900" height="1200">
  <defs>
    <linearGradient id="bg" x1="0" y1="0" x2="0.3" y2="1">
      <stop offset="0" stop-color="#343434"/><stop offset="1" stop-color="#161616"/>
    </linearGradient>
    <radialGradient id="lt" cx="0.5" cy="0.36" r="0.72">
      <stop offset="0" stop-color="#454545"/><stop offset="1" stop-color="#454545" stop-opacity="0"/>
    </radialGradient>
    <radialGradient id="vg" cx="0.5" cy="0.5" r="0.78">
      <stop offset="0.55" stop-color="#000" stop-opacity="0"/><stop offset="1" stop-color="#000" stop-opacity="0.45"/>
    </radialGradient>
  </defs>
  <rect width="900" height="1200" fill="url(#bg)"/>
  <ellipse cx="450" cy="430" rx="560" ry="470" fill="url(#lt)"/>
  <rect width="900" height="1200" fill="url(#vg)"/>
  <g fill="none" stroke="#d2d2d2" stroke-width="7" stroke-linejoin="round" stroke-linecap="round"><path d="M376 410 L300 452 L262 566 L336 604 L360 536 L360 862 L540 862 L540 536 L564 604 L638 566 L600 452 L524 410 L450 470 Z"/><path d="M450 470 L450 862"/><path d="M376 410 L450 470 L524 410"/><path d="M360 832 L540 832"/><path d="M336 590 L360 600 M564 590 L540 600"/></g>
  <text x="60" y="1130" font-family="ui-monospace, monospace" font-size="22" letter-spacing="6" fill="#8a8a8a">BOMBER / NOX ARCHIVE</text>
</svg>
