<svg xmlns="http://www.w3.org/2000/svg" viewBox="0 0 900 1200" width="900" height="1200">
  <defs>
    <linearGradient id="bg" x1="0" y1="0" x2="0.3" y2="1">
      <stop offset="0" stop-color="#343434"/><stop offset="1" stop-color="#161616"/>
    </linearGradient>
    <radialGradient id="lt" cx="0.5" cy="0.36" r="0.72">
      <stop offset="0" stop-color="#454545"/><stop offset="1" stop-color="#454545" stop-opacity="0"/>
    </radialGradient>
    <radialGradient id="vg" cx="0.5" cy="0.5" r="0.78">
      <stop offset="0.55" stop-color="#000" stop-opacity="0"/><stop offset="1" stop-color="#000" stop-opacity="0.45"/>
    </radialGradient>
  </defs>
  <rect width="900" height="1200" fill="url(#bg)"/>
  <ellipse cx="450" cy="430" rx="560" ry="470" fill="url(#lt)"/>
  <rect width="900" height="1200" fill="url(#vg)"/>
  <g fill="none" stroke="#d2d2d2" stroke-width="7" stroke-linejoin="round" stroke-linecap="round"><path d="M356 470 L544 470 L560 520 L540 860 L470 860 L450 560 L430 860 L360 860 L340 520 Z"/><path d="M356 470 L544 470"/><path d="M360 600 L420 600 L420 690 L360 690 Z M540 600 L480 600 L480 690 L540 690 Z"/></g>
  <text x="60" y="1130" font-family="ui-monospace, monospace" font-size="22" letter-spacing="6" fill="#8a8a8a">CARGO / NOX ARCHIVE</text>
</svg>
