<svg xmlns="http://www.w3.org/2000/svg" viewBox="0 0 900 1200" width="900" height="1200">
  <defs>
    <linearGradient id="bg" x1="0" y1="0" x2="0.3" y2="1">
      <stop offset="0" stop-color="#343434"/><stop offset="1" stop-color="#161616"/>
    </linearGradient>
    <radialGradient id="lt" cx="0.5" cy="0.36" r="0.72">
      <stop offset="0" stop-color="#454545"/><stop offset="1" stop-color="#454545" stop-opacity="0"/>
    </radialGradient>
    <radialGradient id="vg" cx="0.5" cy="0.5" r="0.78">
      <stop offset="0.55" stop-color="#000" stop-opacity="0"/><stop offset="1" stop-color="#000" stop-opacity="0.45"/>
    </radialGradient>
  </defs>
  <rect width="900" height="1200" fill="url(#bg)"/>
  <ellipse cx="450" cy="430" rx="560" ry="470" fill="url(#lt)"/>
  <rect width="900" height="1200" fill="url(#vg)"/>
  <g fill="none" stroke="#d2d2d2" stroke-width="7" stroke-linejoin="round" stroke-linecap="round"><path d="M392 410 L300 456 L250 564 L338 604 L366 532 L366 858 L534 858 L534 532 L562 604 L650 564 L600 456 L508 410 C470 452 430 452 392 410 Z"/><path d="M392 410 C418 332 482 332 508 410"/><path d="M398 700 L502 700 L520 786 L380 786 Z"/><path d="M432 436 L432 528 M468 436 L468 528"/></g>
  <text x="60" y="1130" font-family="ui-monospace, monospace" font-size="22" letter-spacing="6" fill="#8a8a8a">HOODIE / NOX ARCHIVE</text>
</svg>
